<svg height="100" viewBox="0 0 100 100" width="100" xmlns="http://www.w3.org/2000/svg"><path d="m60.76 23.73-3.33 2.27-1.66-3.68a15.81 15.81 0 0 0 -14.39-9.27 15.78 15.78 0 0 0 -15.78 15.81l.07 2.92-2.48.72c-4 1.16-7.28 6.32-7.28 9.81v1.26c0 4.25 5.15 9.19 11.78 9.19h44.62c6.63 0 11.78-4.94 11.78-9.19v-1.26c0-4.28-4.77-9.9-10.34-10.38l-3-.25-.1-3a6.32 6.32 0 0 0 -9.9-5z" fill="#19486f"/><path d="m60.76 20.77-3.34 2.29-1.66-3.68a15.81 15.81 0 0 0 -14.38-9.28 15.78 15.78 0 0 0 -15.78 15.8l.07 2.92-2.48.72c-4 1.16-7.28 6.32-7.28 9.81v1.26c0 4.25 5.15 9.19 11.78 9.19h44.62c6.63 0 11.78-4.94 11.78-9.19v-1.25c0-4.28-4.77-9.9-10.34-10.38l-3-.25-.1-3a6.32 6.32 0 0 0 -9.9-5z" fill="#2e73b8"/><path d="m20.07 67.73h58v22.17h-58z" fill="#19486f"/><path d="m20.07 64.73h58v22.17h-58z" fill="#2e73b8"/><path d="m47.57 37.81h3v11.99h-3z" fill="#fff"/><path d="m47.57 49.8h3v9.26h-3z" fill="#2e73b8"/><path d="m49.07 64.73 4.5-6.58h-9z" fill="#2e73b8"/><g fill="#fff"><rect height="9.67" rx="4.83" width="9.67" x="27.07" y="70.73"/><path d="m55.24 80.39h-12.5l6.25-9.66z"/><path d="m61.24 70.73h9.67v9.67h-9.67z"/><circle cx="48.99" cy="37.81" r="3.83"/></g></svg>