<svg enable-background="new 0 0 256 256" viewBox="0 0 256 256" xmlns="http://www.w3.org/2000/svg"><ellipse cx="128" cy="128" fill="#382b73" rx="119.4" ry="119.4" transform="matrix(.7071 -.7071 .7071 .7071 -53.0193 128)"/><path d="m44.036 180.477c4.933 8.544 15.652 13.043 30.664 13.043 3.207 0 6.61-.206 10.194-.621 2.818-.326 5.711-.791 8.655-1.36 7.862 22.897 20.258 37.414 34.452 37.414s26.59-14.517 34.453-37.414c2.943.569 5.837 1.034 8.654 1.36 3.585.415 6.986.621 10.194.621 15.009 0 25.73-4.5 30.663-13.043 5.986-10.369 2.553-25.141-9.67-41.595-1.708-2.299-3.577-4.595-5.564-6.882 1.987-2.287 3.856-4.583 5.564-6.882 12.223-16.454 15.656-31.226 9.67-41.595s-20.495-14.778-40.857-12.423c-2.817.326-5.711.791-8.654 1.36-7.864-22.897-20.26-37.414-34.454-37.414s-26.59 14.517-34.452 37.414c-2.944-.57-5.837-1.034-8.655-1.36-20.364-2.355-34.871 2.054-40.857 12.423s-2.552 25.141 9.67 41.595c1.708 2.299 3.577 4.595 5.564 6.882-1.987 2.287-3.856 4.583-5.564 6.882-12.223 16.453-15.657 31.225-9.67 41.595zm47.534-20.243c4.707 3.24 9.631 6.361 14.75 9.317 5.14 2.967 10.326 5.681 15.506 8.146-8.461 3.458-16.786 6.145-24.737 7.98-2.36-7.706-4.239-16.28-5.519-25.443zm-.815-6.687c-.726-6.938-1.115-14.157-1.115-21.547s.389-14.609 1.115-21.547c5.672-4.089 11.715-8.007 18.065-11.673 6.362-3.673 12.79-6.954 19.18-9.826 6.39 2.872 12.818 6.152 19.18 9.826 6.35 3.666 12.393 7.585 18.066 11.674.726 6.938 1.115 14.156 1.115 21.547s-.389 14.609-1.115 21.547c-5.672 4.089-11.716 8.008-18.066 11.674-6.362 3.673-12.79 6.954-19.18 9.826-6.39-2.872-12.818-6.152-19.18-9.826-6.35-3.667-12.393-7.586-18.065-11.675zm37.245 70.407c-11.63 0-22.249-13.176-29.352-33.509 9.426-2.21 19.334-5.562 29.351-9.931 10.017 4.369 19.926 7.721 29.352 9.931-7.101 20.332-17.721 33.509-29.351 33.509zm30.912-38.277c-7.952-1.836-16.277-4.522-24.738-7.98 5.18-2.464 10.367-5.178 15.506-8.146 5.119-2.955 10.043-6.077 14.751-9.317-1.281 9.163-3.159 17.737-5.519 25.443zm39.368-43.813c10.8 14.539 14.21 27.702 9.354 36.113s-17.961 12.039-35.952 9.956c-2.506-.29-5.073-.689-7.686-1.181 2.751-9.133 4.818-19.418 6.051-30.519 8.808-6.505 16.678-13.426 23.31-20.5 1.753 2.038 3.403 4.084 4.923 6.131zm-27.594-27.346c7.243 5.614 13.746 11.497 19.319 17.482-5.573 5.985-12.076 11.869-19.319 17.482.443-5.657.674-11.498.674-17.482s-.231-11.825-.674-17.482zm.996-38.451c3.333-.386 6.496-.576 9.472-.576 13.09 0 22.523 3.679 26.48 10.532 4.856 8.411 1.446 21.574-9.354 36.113-1.521 2.047-3.17 4.093-4.923 6.131-6.632-7.074-14.502-13.995-23.31-20.5-1.233-11.101-3.3-21.386-6.051-30.519 2.613-.491 5.18-.89 7.686-1.181zm-7.252 27.699c-4.707-3.24-9.631-6.362-14.751-9.317-5.14-2.967-10.326-5.681-15.506-8.146 8.461-3.458 16.787-6.145 24.738-7.98 2.361 7.706 4.239 16.28 5.519 25.443zm-36.43-63.72c11.63 0 22.25 13.176 29.352 33.508-9.426 2.21-19.335 5.562-29.352 9.931-10.017-4.369-19.926-7.721-29.351-9.931 7.102-20.331 17.721-33.508 29.351-33.508zm-30.911 38.278c7.951 1.836 16.277 4.522 24.737 7.98-5.18 2.464-10.367 5.178-15.506 8.146-5.119 2.955-10.043 6.077-14.75 9.317 1.28-9.164 3.159-17.738 5.519-25.443zm-39.369 43.812c-10.801-14.539-14.21-27.702-9.354-36.113 3.957-6.854 13.389-10.532 26.48-10.532 2.975 0 6.14.19 9.472.576 2.506.29 5.074.69 7.687 1.181-2.751 9.133-4.818 19.418-6.051 30.519-8.808 6.505-16.678 13.427-23.31 20.501-1.754-2.039-3.404-4.085-4.924-6.132zm27.595 27.347c-7.243-5.614-13.746-11.497-19.319-17.483 5.573-5.985 12.076-11.869 19.319-17.483-.443 5.658-.674 11.499-.674 17.483s.23 11.825.674 17.483zm-22.672-13.751c6.633 7.074 14.502 13.995 23.31 20.501 1.233 11.101 3.3 21.386 6.051 30.519-2.613.492-5.181.891-7.687 1.181-17.992 2.081-31.096-1.545-35.952-9.956s-1.447-21.574 9.354-36.113c1.521-2.047 3.171-4.093 4.924-6.132z" fill="#291b4a"/><path d="m145.498 156.156c3.671 0 6.657-2.987 6.657-6.658v-34.995c0-3.671-2.986-6.658-6.657-6.658h-34.996c-3.671 0-6.658 2.987-6.658 6.658v34.995c0 3.671 2.987 6.658 6.658 6.658zm-36.654-6.658v-34.995c0-.915.744-1.658 1.658-1.658h34.996c.914 0 1.657.744 1.657 1.658v34.995c0 .915-.743 1.658-1.657 1.658h-34.996c-.914 0-1.658-.744-1.658-1.658z" fill="#291b4a"/><path d="m128 124.13c1.381 0 2.5-1.119 2.5-2.5s-1.119-2.5-2.5-2.5h-9.963c-1.381 0-2.5 1.119-2.5 2.5s1.119 2.5 2.5 2.5z" fill="#291b4a"/><path d="m137.964 134.5c1.381 0 2.5-1.119 2.5-2.5s-1.119-2.5-2.5-2.5h-19.927c-1.381 0-2.5 1.119-2.5 2.5s1.119 2.5 2.5 2.5z" fill="#291b4a"/><path d="m137.964 144.87c1.381 0 2.5-1.119 2.5-2.5s-1.119-2.5-2.5-2.5h-19.927c-1.381 0-2.5 1.119-2.5 2.5s1.119 2.5 2.5 2.5z" fill="#291b4a"/><path d="m171.36 128c0-54.367-19.046-96.954-43.36-96.954s-43.36 42.587-43.36 96.954 19.046 96.954 43.36 96.954 43.36-42.587 43.36-96.954zm-81.72 0c0-49.844 17.567-91.954 38.36-91.954 20.794 0 38.36 42.109 38.36 91.954s-17.566 91.954-38.36 91.954c-20.793 0-38.36-42.11-38.36-91.954z" fill="#f9b087"/><path d="m74.699 189.52c3.207 0 6.61-.206 10.194-.621 19.64-2.275 42.648-10.567 64.787-23.349 22.139-12.781 40.824-28.562 52.614-44.433 12.223-16.454 15.656-31.226 9.67-41.595s-20.495-14.778-40.857-12.423c-19.64 2.275-42.648 10.567-64.787 23.349s-40.824 28.562-52.614 44.433c-12.223 16.454-15.657 31.226-9.67 41.595 4.932 8.545 15.651 13.044 30.663 13.044zm-16.979-51.656c11.392-15.335 29.54-30.637 51.1-43.084s43.885-20.514 62.862-22.712c3.333-.386 6.496-.576 9.472-.576 13.09 0 22.523 3.679 26.48 10.532 4.856 8.411 1.446 21.574-9.354 36.113-11.393 15.336-29.54 30.637-51.101 43.084s-43.885 20.514-62.862 22.712c-17.992 2.083-31.096-1.545-35.952-9.956s-1.446-21.574 9.355-36.113z" fill="#f9b087"/><path d="m106.32 165.551c22.138 12.782 45.147 21.074 64.787 23.349 3.585.415 6.986.621 10.194.621 15.009 0 25.73-4.5 30.663-13.043 5.986-10.369 2.553-25.141-9.67-41.595-11.79-15.871-30.476-31.651-52.614-44.433s-45.147-21.074-64.787-23.349c-20.364-2.357-34.871 2.054-40.857 12.423s-2.552 25.141 9.67 41.595c11.79 15.87 30.476 31.65 52.614 44.432zm-57.954-83.528c3.957-6.854 13.389-10.532 26.48-10.532 2.975 0 6.14.19 9.472.576 18.977 2.198 41.301 10.264 62.862 22.712s39.708 27.749 51.101 43.084c10.8 14.539 14.21 27.702 9.354 36.113s-17.961 12.039-35.952 9.956c-18.977-2.198-41.302-10.264-62.862-22.712s-39.708-27.749-51.1-43.084c-10.802-14.539-14.211-27.701-9.355-36.113z" fill="#f9b087"/><g fill="#ff8639"><path d="m165.219 154.957c-.242-.15-.515-.224-.788-.224-.298 0-.595.089-.851.264-4.757 3.275-9.686 6.388-14.65 9.254-4.986 2.879-10.168 5.601-15.401 8.09-.536.255-.872.803-.855 1.397s.382 1.122.932 1.346c8.541 3.491 16.942 6.201 24.968 8.053.113.026.227.039.338.039.646 0 1.237-.419 1.433-1.061 2.42-7.9 4.294-16.538 5.57-25.675.083-.588-.19-1.17-.696-1.483zm-6.307 26.72c-7.952-1.836-16.277-4.522-24.738-7.98 5.18-2.464 10.367-5.178 15.506-8.146 5.119-2.955 10.043-6.077 14.751-9.317-1.281 9.163-3.159 17.737-5.519 25.443z"/><path d="m127.385 172.414c.196.088.405.132.615.132s.419-.044.615-.132c6.521-2.931 13.02-6.26 19.315-9.895 6.282-3.627 12.403-7.582 18.193-11.756.347-.25.57-.636.615-1.061.745-7.124 1.123-14.426 1.123-21.703s-.378-14.579-1.123-21.703c-.044-.425-.268-.811-.615-1.061-5.79-4.174-11.911-8.129-18.193-11.756-6.296-3.635-12.794-6.964-19.315-9.895-.196-.088-.405-.132-.615-.132s-.419.044-.615.132c-6.521 2.931-13.02 6.26-19.315 9.895-6.282 3.627-12.402 7.582-18.192 11.755-.347.25-.57.636-.615 1.061-.745 7.125-1.123 14.427-1.123 21.705s.378 14.58 1.123 21.703c.044.425.268.811.615 1.061 5.79 4.174 11.911 8.129 18.192 11.755 6.295 3.635 12.794 6.964 19.315 9.895zm-37.745-44.414c0-7.391.389-14.609 1.115-21.547 5.672-4.089 11.715-8.007 18.065-11.673 6.362-3.673 12.79-6.954 19.18-9.826 6.39 2.872 12.818 6.152 19.18 9.826 6.35 3.666 12.393 7.585 18.066 11.674.726 6.938 1.115 14.156 1.115 21.547s-.389 14.609-1.115 21.547c-5.672 4.089-11.716 8.008-18.066 11.674-6.362 3.673-12.79 6.954-19.18 9.826-6.39-2.872-12.818-6.152-19.18-9.826-6.35-3.666-12.393-7.584-18.065-11.673-.726-6.94-1.115-14.158-1.115-21.549z"/><path d="m122.394 175.085c.55-.225.915-.753.932-1.346.017-.594-.319-1.141-.855-1.397-5.233-2.489-10.414-5.211-15.401-8.09-4.963-2.866-9.892-5.979-14.649-9.253-.256-.176-.553-.264-.851-.264-.273 0-.546.074-.788.224-.506.313-.78.895-.697 1.484 1.276 9.137 3.15 17.775 5.57 25.674.197.642.788 1.061 1.433 1.061.112 0 .225-.013.338-.039 8.027-1.854 16.427-4.563 24.968-8.054zm-30.824-18.851c4.707 3.24 9.631 6.361 14.75 9.317 5.14 2.967 10.326 5.681 15.506 8.146-8.461 3.458-16.786 6.145-24.737 7.98-2.36-7.706-4.239-16.28-5.519-25.443z"/><path d="m157.694 184.985c-9.356-2.194-19.145-5.506-29.095-9.846-.191-.083-.395-.125-.6-.125s-.408.042-.6.125c-9.949 4.339-19.738 7.652-29.094 9.846-.414.097-.768.365-.972.738s-.242.815-.101 1.217c7.662 21.934 18.876 34.514 30.768 34.514s23.107-12.58 30.768-34.514c.14-.402.103-.844-.101-1.217-.205-.373-.558-.641-.973-.738zm-29.694 34.969c-11.63 0-22.249-13.176-29.352-33.509 9.426-2.21 19.334-5.562 29.351-9.931 10.017 4.369 19.926 7.721 29.352 9.931-7.101 20.332-17.721 33.509-29.351 33.509z"/><path d="m86.027 109.197c-.223-.121-.468-.18-.712-.18-.326 0-.651.106-.919.314-7.313 5.668-13.873 11.605-19.498 17.646-.536.576-.536 1.468 0 2.044 5.625 6.041 12.185 11.978 19.498 17.646.269.208.593.314.919.314.244 0 .489-.059.712-.18.522-.282.829-.845.783-1.437-.444-5.675-.67-11.518-.67-17.366s.225-11.691.67-17.366c.046-.589-.261-1.153-.783-1.435zm-.712 36.286c-7.243-5.614-13.746-11.497-19.319-17.483 5.573-5.985 12.076-11.869 19.319-17.483-.443 5.658-.674 11.499-.674 17.483s.23 11.825.674 17.483z"/><path d="m62.611 125.767h.032c.414 0 .81-.171 1.094-.474 6.584-7.022 14.358-13.858 23.107-20.32.336-.248.554-.626.6-1.041 1.208-10.874 3.226-21.052 5.997-30.252.123-.408.067-.848-.154-1.212s-.586-.616-1.004-.695c-2.704-.509-5.326-.911-7.792-1.197-3.357-.389-6.601-.586-9.644-.586-13.713 0-23.579 4.007-27.78 11.282-5.169 8.954-1.725 22.716 9.449 37.757 1.492 2.008 3.171 4.099 4.99 6.215.277.325.679.514 1.105.523zm-14.245-43.744c3.957-6.854 13.389-10.532 26.48-10.532 2.975 0 6.14.19 9.472.576 2.506.29 5.074.69 7.687 1.181-2.751 9.133-4.818 19.418-6.051 30.519-8.808 6.505-16.678 13.427-23.31 20.501-1.753-2.039-3.403-4.085-4.923-6.132-10.802-14.539-14.211-27.701-9.355-36.113z"/><path d="m90.782 101.042c.242.15.515.224.788.224.298 0 .595-.089.851-.264 4.757-3.274 9.686-6.388 14.649-9.253 4.986-2.879 10.168-5.601 15.401-8.09.536-.255.872-.803.855-1.397s-.382-1.122-.932-1.346c-8.541-3.491-16.941-6.2-24.967-8.053-.113-.026-.227-.039-.338-.039-.645 0-1.237.419-1.433 1.061-2.42 7.899-4.294 16.537-5.57 25.674-.084.589.19 1.171.696 1.483zm6.307-26.718c7.951 1.836 16.277 4.522 24.737 7.98-5.18 2.464-10.367 5.178-15.506 8.146-5.119 2.955-10.043 6.077-14.75 9.317 1.28-9.164 3.159-17.738 5.519-25.443z"/><path d="m193.389 130.233c-.011 0-.021 0-.032 0-.414 0-.81.171-1.094.474-6.583 7.021-14.357 13.858-23.107 20.32-.336.248-.554.626-.6 1.041-1.208 10.874-3.226 21.053-5.997 30.252-.123.408-.067.848.154 1.212s.586.616 1.005.695c2.703.508 5.324.911 7.791 1.197 3.356.389 6.6.586 9.642.586 13.715 0 23.581-4.007 27.782-11.282 5.169-8.953 1.725-22.715-9.448-37.757-1.491-2.008-3.17-4.099-4.99-6.215-.278-.325-.68-.514-1.106-.523zm14.245 43.744c-3.957 6.854-13.392 10.532-26.483 10.532-2.975 0-6.138-.19-9.47-.576-2.506-.29-5.073-.689-7.686-1.181 2.751-9.133 4.818-19.418 6.051-30.519 8.808-6.505 16.678-13.426 23.31-20.5 1.753 2.039 3.403 4.085 4.923 6.131 10.801 14.539 14.211 27.701 9.355 36.113z"/><path d="m44.036 176.477c4.933 8.544 15.652 13.043 30.664 13.043 3.207 0 6.61-.206 10.194-.621 2.818-.326 5.711-.791 8.655-1.36 7.862 22.897 20.258 37.414 34.452 37.414s26.59-14.517 34.453-37.414c2.943.569 5.837 1.034 8.654 1.36 3.585.415 6.986.621 10.194.621 15.009 0 25.73-4.5 30.663-13.043 5.986-10.369 2.553-25.141-9.67-41.595-1.708-2.299-3.577-4.595-5.564-6.882 1.987-2.287 3.856-4.583 5.564-6.882 12.223-16.454 15.656-31.226 9.67-41.595-4.933-8.545-15.655-13.042-30.669-13.042-3.206 0-6.606.205-10.189.619-2.817.326-5.711.791-8.654 1.36-7.863-22.897-20.259-37.414-34.453-37.414s-26.59 14.517-34.452 37.414c-2.944-.57-5.837-1.034-8.655-1.36-3.583-.415-6.987-.62-10.193-.62-15.014 0-25.731 4.498-30.664 13.043-5.987 10.369-2.552 25.141 9.67 41.595 1.708 2.299 3.577 4.595 5.564 6.882-1.987 2.287-3.856 4.583-5.564 6.882-12.223 16.453-15.657 31.225-9.67 41.595zm16.366-47.493c.49-.564.49-1.404 0-1.968-2.04-2.348-3.888-4.633-5.492-6.792-11.844-15.944-15.245-30.132-9.576-39.95 4.644-8.043 14.798-12.294 29.366-12.294 3.153 0 6.524.205 10.021.61 2.649.307 5.523.759 8.542 1.343.096.018.191.027.286.027.63 0 1.207-.398 1.418-1.013 7.943-23.133 19.983-36.401 33.033-36.401s25.09 13.268 33.034 36.401c.211.615.788 1.013 1.418 1.013.094 0 .19-.009.286-.027 3.019-.584 5.893-1.036 8.541-1.343 3.496-.404 6.866-.609 10.016-.609 14.571 0 24.727 4.251 29.37 12.292 5.669 9.819 2.268 24.007-9.575 39.95-1.604 2.159-3.452 4.444-5.492 6.792-.49.564-.49 1.404 0 1.968 2.04 2.348 3.888 4.633 5.492 6.792 11.843 15.943 15.244 30.131 9.575 39.95-4.643 8.042-14.797 12.293-29.364 12.293-3.15 0-6.522-.205-10.022-.611-2.649-.307-5.522-.759-8.542-1.343-.096-.018-.191-.027-.286-.027-.63 0-1.207.398-1.418 1.013-7.943 23.134-19.984 36.401-33.034 36.401s-25.09-13.268-33.033-36.401c-.211-.615-.788-1.013-1.418-1.013-.094 0-.19.009-.286.027-3.02.584-5.894 1.036-8.542 1.343-3.499.405-6.871.611-10.021.611-14.567 0-24.721-4.251-29.365-12.294-5.669-9.819-2.268-24.007 9.576-39.95 1.604-2.157 3.452-4.442 5.492-6.79z"/><path d="m47.067 174.727c4.2 7.275 14.067 11.281 27.782 11.281 3.042 0 6.286-.197 9.642-.585 2.466-.286 5.088-.688 7.792-1.197.418-.079.783-.331 1.004-.695s.277-.804.154-1.212c-2.771-9.2-4.789-19.378-5.997-30.252-.046-.415-.264-.793-.6-1.041-8.749-6.462-16.524-13.298-23.107-20.32-.284-.303-.68-.474-1.094-.474-.011 0-.021 0-.032 0-.426.009-.827.199-1.105.522-1.82 2.116-3.499 4.207-4.99 6.215-11.175 15.042-14.618 28.804-9.449 37.758zm10.653-36.863c1.521-2.047 3.17-4.093 4.923-6.132 6.633 7.074 14.502 13.995 23.31 20.501 1.233 11.101 3.3 21.386 6.051 30.519-2.613.492-5.181.891-7.687 1.181-3.331.385-6.495.575-9.469.575-13.093 0-22.526-3.677-26.483-10.531-4.855-8.412-1.446-21.574 9.355-36.113z"/><path d="m168.556 103.933c.046.415.264.793.6 1.041 8.75 6.462 16.524 13.298 23.107 20.32.284.303.68.474 1.094.474h.032c.426-.009.827-.199 1.105-.522 1.82-2.116 3.498-4.207 4.99-6.215 11.174-15.042 14.618-28.804 9.448-37.757-4.201-7.275-14.066-11.282-27.779-11.282-3.042 0-6.286.197-9.644.586-2.466.286-5.088.688-7.791 1.197-.418.079-.784.331-1.005.695s-.277.804-.154 1.212c2.771 9.198 4.789 19.377 5.997 30.251zm3.126-31.866c3.333-.386 6.496-.576 9.472-.576 13.09 0 22.523 3.679 26.48 10.532 4.856 8.411 1.446 21.574-9.354 36.113-1.521 2.047-3.17 4.093-4.923 6.131-6.632-7.074-14.502-13.995-23.31-20.5-1.233-11.101-3.3-21.386-6.051-30.519 2.613-.491 5.18-.89 7.686-1.181z"/><path d="m169.974 146.802c.223.121.468.18.712.18.326 0 .651-.106.919-.314 7.313-5.668 13.873-11.605 19.498-17.646.536-.576.536-1.468 0-2.044-5.625-6.041-12.185-11.977-19.498-17.646-.269-.208-.593-.314-.919-.314-.244 0-.489.059-.712.18-.522.282-.829.845-.783 1.437.444 5.674.67 11.517.67 17.365s-.225 11.691-.67 17.365c-.047.592.26 1.155.783 1.437zm.712-36.284c7.243 5.614 13.746 11.497 19.319 17.482-5.573 5.985-12.076 11.869-19.319 17.482.443-5.657.674-11.498.674-17.482s-.231-11.825-.674-17.482z"/><path d="m133.606 80.915c-.55.225-.915.753-.932 1.346-.017.594.319 1.141.855 1.397 5.233 2.489 10.415 5.211 15.401 8.09 4.964 2.866 9.893 5.979 14.65 9.254.256.176.553.264.851.264.273 0 .546-.074.788-.224.506-.313.78-.895.697-1.484-1.276-9.137-3.15-17.775-5.57-25.675-.197-.642-.788-1.061-1.433-1.061-.112 0-.225.013-.338.039-8.028 1.854-16.429 4.563-24.969 8.054zm30.824 18.851c-4.707-3.24-9.631-6.362-14.751-9.317-5.14-2.967-10.326-5.681-15.506-8.146 8.461-3.458 16.787-6.145 24.738-7.98 2.361 7.706 4.239 16.28 5.519 25.443z"/><path d="m98.306 71.016c9.356 2.194 19.145 5.506 29.094 9.846.191.083.395.125.6.125s.409-.042.6-.125c9.95-4.34 19.739-7.652 29.095-9.846.414-.097.768-.365.972-.738s.242-.815.101-1.217c-7.661-21.935-18.876-34.515-30.768-34.515s-23.106 12.58-30.768 34.514c-.14.402-.103.844.101 1.217s.559.641.973.739zm29.694-34.97c11.63 0 22.25 13.176 29.352 33.508-9.426 2.21-19.335 5.562-29.352 9.931-10.017-4.369-19.926-7.721-29.351-9.931 7.102-20.331 17.721-33.508 29.351-33.508z"/></g><path d="m145.498 152.156c3.671 0 6.657-2.987 6.657-6.658v-34.995c0-3.671-2.986-6.658-6.657-6.658h-34.996c-3.671 0-6.658 2.987-6.658 6.658v34.995c0 3.671 2.987 6.658 6.658 6.658zm-36.654-6.658v-34.995c0-.915.744-1.658 1.658-1.658h34.996c.914 0 1.657.744 1.657 1.658v34.995c0 .915-.743 1.658-1.657 1.658h-34.996c-.914 0-1.658-.744-1.658-1.658z" fill="#ed9abc"/><path d="m128 120.13c1.381 0 2.5-1.119 2.5-2.5s-1.119-2.5-2.5-2.5h-9.963c-1.381 0-2.5 1.119-2.5 2.5s1.119 2.5 2.5 2.5z" fill="#d3d3d3"/><path d="m137.964 130.5c1.381 0 2.5-1.119 2.5-2.5s-1.119-2.5-2.5-2.5h-19.927c-1.381 0-2.5 1.119-2.5 2.5s1.119 2.5 2.5 2.5z" fill="#d3d3d3"/><path d="m137.964 140.87c1.381 0 2.5-1.119 2.5-2.5s-1.119-2.5-2.5-2.5h-19.927c-1.381 0-2.5 1.119-2.5 2.5s1.119 2.5 2.5 2.5z" fill="#d3d3d3"/><path d="m145.498 152.156c3.671 0 6.657-2.987 6.657-6.658v-34.995c0-3.671-2.986-6.658-6.657-6.658h-34.996c-3.671 0-6.658 2.987-6.658 6.658v34.995c0 3.671 2.987 6.658 6.658 6.658zm-40.154-6.658v-34.995c0-2.844 2.314-5.158 5.158-5.158h34.996c2.844 0 5.157 2.314 5.157 5.158v34.995c0 2.844-2.314 5.158-5.157 5.158h-34.996c-2.844 0-5.158-2.314-5.158-5.158z" fill="#e54890"/><path d="m145.498 148.656c1.741 0 3.157-1.417 3.157-3.158v-34.995c0-1.741-1.416-3.158-3.157-3.158h-34.996c-1.741 0-3.158 1.417-3.158 3.158v34.995c0 1.741 1.417 3.158 3.158 3.158zm-36.654-3.158v-34.995c0-.915.744-1.658 1.658-1.658h34.996c.914 0 1.657.744 1.657 1.658v34.995c0 .915-.743 1.658-1.657 1.658h-34.996c-.914 0-1.658-.744-1.658-1.658z" fill="#e54890"/><path d="m128 120.13c1.381 0 2.5-1.119 2.5-2.5s-1.119-2.5-2.5-2.5h-9.963c-1.381 0-2.5 1.119-2.5 2.5s1.119 2.5 2.5 2.5zm-10.963-2.5c0-.551.449-1 1-1h9.963c.551 0 1 .449 1 1s-.449 1-1 1h-9.963c-.552 0-1-.449-1-1z" fill="#ebe7f2"/><path d="m137.964 130.5c1.381 0 2.5-1.119 2.5-2.5s-1.119-2.5-2.5-2.5h-19.927c-1.381 0-2.5 1.119-2.5 2.5s1.119 2.5 2.5 2.5zm-20.927-2.5c0-.551.449-1 1-1h19.927c.551 0 1 .449 1 1s-.449 1-1 1h-19.927c-.552 0-1-.449-1-1z" fill="#ebe7f2"/><path d="m137.964 140.87c1.381 0 2.5-1.119 2.5-2.5s-1.119-2.5-2.5-2.5h-19.927c-1.381 0-2.5 1.119-2.5 2.5s1.119 2.5 2.5 2.5zm-20.927-2.5c0-.551.449-1 1-1h19.927c.551 0 1 .449 1 1s-.449 1-1 1h-19.927c-.552 0-1-.448-1-1z" fill="#ebe7f2"/></svg>