<svg height="100" viewBox="0 0 100 100" width="100" xmlns="http://www.w3.org/2000/svg"><rect fill="#19486f" height="53" rx="9.12" width="53" x="23.5" y="25.99"/><g fill="#2e73b8"><rect height="53" rx="9.12" width="53" x="23.5" y="23.51"/><path d="m60 14.4h4v13.65h-4z"/><path d="m36 14.4h4v13.65h-4z"/><path d="m54 14.4h4v13.65h-4z"/><path d="m42 14.4h4v13.65h-4z"/><path d="m48 14.4h4v13.65h-4z"/><path d="m14.4 60h18.1v4h-18.1z"/><path d="m14.4 42h18.1v4h-18.1z"/><path d="m14.4 54h18.1v4h-18.1z"/><path d="m14.4 48h18.1v4h-18.1z"/><path d="m14.4 36h18.1v4h-18.1z"/><path d="m36 69.88h4v15.72h-4z"/><path d="m60 69.88h4v15.72h-4z"/><path d="m42 69.88h4v15.72h-4z"/><path d="m54 69.88h4v15.72h-4z"/><path d="m48 69.88h4v15.72h-4z"/><path d="m69.67 54h15.94v4h-15.94z"/><path d="m69.67 36h15.94v4h-15.94z"/><path d="m69.67 48h15.94v4h-15.94z"/><path d="m69.67 42h15.94v4h-15.94z"/><path d="m69.67 60h15.94v4h-15.94z"/></g><path d="m28.45 58.11h-.65a1.5 1.5 0 0 1 0-3h.66a1.5 1.5 0 0 1 0 3z" fill="#fff"/><path d="m73.49 58.4h-.66a1.5 1.5 0 0 1 0-3h.66a1.5 1.5 0 0 1 0 3z" fill="#fff"/><path d="m67.38 58h3.83v-3.4c0-7-8.37-7-8.37-7l-3.17-7.42h-15.75l-2.17 7.17-11.92 3.3v7.35h2.86" fill="#2e73b8"/><path d="m71.21 59.5h-3.83a1.5 1.5 0 0 1 0-3h2.33v-1.9c0-5.35-6.17-5.54-6.88-5.54a1.51 1.51 0 0 1 -1.38-.91l-2.78-6.51h-13.67l-1.84 6.1a1.5 1.5 0 0 1 -1 1l-10.82 3v4.76h1.36a1.5 1.5 0 0 1 0 3h-2.87a1.5 1.5 0 0 1 -1.5-1.5v-7.35a1.5 1.5 0 0 1 1.1-1.44l11.12-3.11 1.93-6.38a1.5 1.5 0 0 1 1.44-1.07h15.75a1.5 1.5 0 0 1 1.38.91l2.8 6.55c3.54.32 8.86 2.36 8.86 8.49v3.4a1.5 1.5 0 0 1 -1.5 1.5z" fill="#fff"/><path d="m67.38 58h3.83v-3.4c0-7-8.37-7-8.37-7l-3.17-7.42h-15.75l-2.17 7.17-11.92 3.3v7.35h2.86" fill="#2e73b8"/><path d="m71.21 59.5h-3.83a1.5 1.5 0 0 1 0-3h2.33v-1.9c0-5.35-6.17-5.54-6.88-5.54a1.51 1.51 0 0 1 -1.38-.91l-2.78-6.51h-13.67l-1.84 6.1a1.5 1.5 0 0 1 -1 1l-10.82 3v4.76h1.36a1.5 1.5 0 0 1 0 3h-2.87a1.5 1.5 0 0 1 -1.5-1.5v-7.35a1.5 1.5 0 0 1 1.1-1.44l11.12-3.11 1.93-6.38a1.5 1.5 0 0 1 1.44-1.07h15.75a1.5 1.5 0 0 1 1.38.91l2.8 6.55c3.54.32 8.86 2.36 8.86 8.49v3.4a1.5 1.5 0 0 1 -1.5 1.5z" fill="#fff"/><circle cx="36.98" cy="58" fill="#2e73b8" r="3.94"/><path d="m37 63.44a5.44 5.44 0 1 1 5.42-5.44 5.44 5.44 0 0 1 -5.42 5.44zm0-7.87a2.44 2.44 0 1 0 2.42 2.43 2.44 2.44 0 0 0 -2.42-2.43z" fill="#fff"/><circle cx="62.83" cy="58" fill="#2e73b8" r="3.94"/><path d="m62.83 63.44a5.44 5.44 0 1 1 5.44-5.44 5.44 5.44 0 0 1 -5.44 5.44zm0-7.87a2.44 2.44 0 1 0 2.44 2.43 2.44 2.44 0 0 0 -2.44-2.43z" fill="#fff"/><path d="m58.25 59.5h-16.62a1.5 1.5 0 0 1 0-3h16.62a1.5 1.5 0 0 1 0 3z" fill="#fff"/></svg>