<svg enable-background="new 0 0 32 32" viewBox="0 0 32 32" xmlns="http://www.w3.org/2000/svg"><path fill="orange" d="m12.86 8.5c0-1.025-.834-1.86-1.86-1.86s-1.86.835-1.86 1.86.834 1.86 1.86 1.86c.413 0 .791-.14 1.1-.368l3.54 3.17v5.838h.72v-6.161l-3.775-3.379c.171-.282.275-.608.275-.96zm-1.86 1.14c-.628 0-1.14-.512-1.14-1.14s.512-1.14 1.14-1.14 1.14.512 1.14 1.14-.512 1.14-1.14 1.14z"/><path fill="orange" d="m13.36 18.5c0-1.025-.834-1.86-1.86-1.86s-1.86.834-1.86 1.86.834 1.86 1.86 1.86c.453 0 .862-.169 1.185-.439l2.955 2.256v8.823h.72v-9.178l-3.222-2.46c.137-.259.222-.549.222-.862zm-1.86 1.14c-.628 0-1.14-.511-1.14-1.14s.512-1.14 1.14-1.14 1.14.511 1.14 1.14-.512 1.14-1.14 1.14z"/><path fill="orange" d="m19.86 5.5c0-1.025-.835-1.86-1.86-1.86s-1.86.834-1.86 1.86c0 .902.646 1.655 1.5 1.823v23.677h.721v-23.677c.853-.168 1.499-.921 1.499-1.823zm-1.86 1.14c-.629 0-1.14-.512-1.14-1.14s.511-1.14 1.14-1.14 1.14.512 1.14 1.14-.511 1.14-1.14 1.14z"/><path fill="orange" d="m23 21.64c-1.025 0-1.86.835-1.86 1.86 0 .311.084.6.219.857l-1.719 1.478v5.165h.721v-4.835l1.451-1.246c.323.271.734.441 1.188.441 1.025 0 1.86-.835 1.86-1.86s-.835-1.86-1.86-1.86zm0 3c-.629 0-1.14-.511-1.14-1.14s.511-1.14 1.14-1.14 1.14.511 1.14 1.14-.511 1.14-1.14 1.14z"/><path fill="orange" d="m23.5 11.64c-1.025 0-1.86.834-1.86 1.86 0 .223.046.434.118.633l-2.118 1.695v7.172h.721v-6.827l1.774-1.42c.34.37.824.607 1.365.607 1.025 0 1.86-.834 1.86-1.86s-.835-1.86-1.86-1.86zm0 3c-.629 0-1.14-.512-1.14-1.14s.511-1.14 1.14-1.14 1.14.512 1.14 1.14-.511 1.14-1.14 1.14z"/><path fill="orange" d="m17.5.64c-6.509 0-11.81 5.271-11.86 11.768l-3.238 5.983c-.212.425-.19.92.059 1.323.25.404.682.646 1.157.646h2.022v2.64c0 3.456 3.684 6.164 7 6.35v1.65h.72v-2.36h-.36c-3.071 0-6.64-2.463-6.64-5.64v-3.36h-2.742c-.227 0-.425-.11-.544-.303s-.129-.42-.034-.613l3.276-6.052.044-.172c0-6.143 4.998-11.14 11.14-11.14s11.14 4.997 11.14 11.14c0 2.782-1.031 5.446-2.903 7.501l-.095.103-.002 10.896h.721l.002-10.618c1.935-2.173 2.998-4.966 2.998-7.882-.001-6.54-5.321-11.86-11.861-11.86z"/><path d="m0 0h32v32h-32z" fill="none"/></svg>