<svg height="128" viewBox="0 0 128 128" width="128" xmlns="http://www.w3.org/2000/svg"><path d="m9.219 98.719h7.468v-76.907a7.469 7.469 0 0 0 -14.937 0v84.375a7.469 7.469 0 0 1 7.469-7.468z" fill="#e1e6f0"/><path d="m9.219 98.719h7.468v-76.907a7.469 7.469 0 0 0 -14.937 0v84.375a7.469 7.469 0 0 1 7.469-7.468z" fill="#e1e6f0"/><path d="m126.25 21.812h-109.563v76.907h-7.468a7.469 7.469 0 1 0 0 14.937h117.031z" fill="#f3f5f9"/><path d="m66.3 85.746-18.242-10.008v-20.243l18.242 10.008z" fill="#4d5e80"/><path d="m66.3 85.746 28.25-10.008v-20.243l-28.25 10.008z" fill="#3d4566"/><path d="m48.058 55.495 10.617-9.436 7.625 19.444z" fill="#ffdf40"/><path d="m58.675 46.059 26.625-7 9.25 16.436-28.25 10.008z" fill="#ffbe40"/><g fill="#e1e6f0"><path d="m107.931 73v-15.3a1.744 1.744 0 0 0 2.517-2.407l-2.937-3.437a1.772 1.772 0 0 0 -2.66 0l-2.938 3.437a1.744 1.744 0 0 0 2.518 2.407v15.3a1.745 1.745 0 0 0 -2.518 2.41l2.938 3.438a1.774 1.774 0 0 0 2.66 0l2.937-3.438a1.745 1.745 0 0 0 -2.517-2.41z"/><path d="m98.576 84.958a1.775 1.775 0 0 0 -1.135-1.864l-4.248-1.548a1.745 1.745 0 0 0 -1.375 3.2l-14.334 5.36a1.745 1.745 0 0 0 -3.14-1.513l-2.191 3.955a1.775 1.775 0 0 0 .933 2.492l4.248 1.547a1.746 1.746 0 0 0 1.376-3.2l14.333-5.36a1.746 1.746 0 0 0 3.141 1.514l2.19-3.955a2.079 2.079 0 0 0 .202-.628z"/><path d="m62.48 93.031a1.791 1.791 0 0 0 -.107-.489l-1.662-4.2a1.746 1.746 0 0 0 -3.31 1.1l-13.522-7.173a1.745 1.745 0 0 0 -.95-3.354l-4.413.986a1.776 1.776 0 0 0 -1.247 2.352l1.663 4.2a1.746 1.746 0 0 0 3.309-1.1l13.522 7.165a1.745 1.745 0 0 0 .567 3.4 1.806 1.806 0 0 0 .384-.042l4.413-.986a1.762 1.762 0 0 0 1.353-1.859z"/></g><path d="m1.75 77.462a1.749 1.749 0 0 0 1.75-1.75v-5.091a1.75 1.75 0 0 0 -3.5 0v5.091a1.749 1.749 0 0 0 1.75 1.75z"/><path d="m126.25 20.063h-107.984a9.217 9.217 0 0 0 -18.266 1.75v37.8a1.75 1.75 0 0 0 3.5 0v-37.8a5.719 5.719 0 1 1 11.437 0v75.156h-5.718a9.174 9.174 0 0 0 -5.719 1.993v-12.246a1.75 1.75 0 0 0 -3.5 0v19.472a9.229 9.229 0 0 0 9.219 9.218h117.031a1.749 1.749 0 0 0 1.75-1.75v-91.843a1.749 1.749 0 0 0 -1.75-1.75zm-1.75 91.843h-115.281a5.719 5.719 0 1 1 0-11.437h7.468a1.75 1.75 0 0 0 1.75-1.75v-75.156h106.063z"/><path d="m47.216 77.272 18.242 10.008a1.7 1.7 0 0 0 .214.085c.049.019.094.042.144.057a1.769 1.769 0 0 0 .484.074 1.75 1.75 0 0 0 .529-.091c.018-.006.037 0 .055-.009l28.25-10.008a1.75 1.75 0 0 0 1.166-1.65v-20.238c0-.02-.007-.04-.008-.06a1.658 1.658 0 0 0 -.029-.244c-.009-.051-.015-.1-.029-.153a1.864 1.864 0 0 0 -.088-.236c-.02-.045-.034-.091-.057-.134-.006-.01-.008-.021-.014-.031l-9.25-16.442a1.75 1.75 0 1 0 -3.051 1.717l8.226 14.623-24.689 8.748-.608-1.55-5.681-14.487 16.593-4.362a1.75 1.75 0 0 0 -.89-3.385l-18.5 4.862a1.759 1.759 0 0 0 -.359.14c-.025.013-.047.033-.072.047a1.78 1.78 0 0 0 -.257.178c-.009.008-.02.012-.028.02l-10.609 9.437c-.015.013-.025.031-.04.046a1.669 1.669 0 0 0 -.131.148 1.555 1.555 0 0 0 -.144.19 1.8 1.8 0 0 0 -.089.168 1.5 1.5 0 0 0 -.138.407 1.685 1.685 0 0 0 -.032.247c0 .034-.013.067-.013.1v20.244a1.749 1.749 0 0 0 .903 1.534zm2.592-18.821.417.229 14.325 7.859v16.251l-14.742-8.09zm42.992 16.049-24.75 8.77v-16.531l1.1-.389 23.65-8.378zm-34.838-25.467 4.945 12.613-11.832-6.492z"/><path d="m102.106 72.945a1.749 1.749 0 0 0 -.193 2.467l2.938 3.438c.024.029.055.049.081.076s.07.081.112.117c.01.009.023.011.034.02a1.712 1.712 0 0 0 .468.273c.034.014.068.023.1.034a1.734 1.734 0 0 0 .528.092h.008a1.733 1.733 0 0 0 .527-.092c.035-.011.069-.02.1-.034a1.742 1.742 0 0 0 .468-.273c.01-.009.023-.011.033-.02a1.539 1.539 0 0 0 .112-.117c.026-.027.057-.047.082-.076l2.937-3.438a1.745 1.745 0 0 0 -2.51-2.412v-15.3a1.744 1.744 0 0 0 2.517-2.407l-2.937-3.437c-.03-.036-.067-.062-.1-.095s-.059-.068-.1-.1c-.01-.008-.021-.014-.032-.022a1.752 1.752 0 0 0 -.153-.107c-.046-.03-.091-.062-.14-.088s-.1-.044-.15-.065-.11-.047-.167-.064-.1-.022-.152-.032a1.771 1.771 0 0 0 -.177-.031c-.055 0-.11 0-.166 0s-.11 0-.165 0a1.79 1.79 0 0 0 -.178.031c-.051.01-.1.018-.151.032s-.112.042-.168.065-.1.039-.149.064-.094.058-.141.089a1.726 1.726 0 0 0 -.152.106c-.01.008-.022.014-.032.022-.036.031-.062.067-.095.1s-.068.059-.1.095l-2.938 3.437a1.744 1.744 0 0 0 2.518 2.407v15.3a1.743 1.743 0 0 0 -2.317-.055z"/><path d="m93.193 81.546a1.745 1.745 0 0 0 -1.375 3.2l-14.334 5.36a1.745 1.745 0 0 0 -3.14-1.513l-2.191 3.955c-.023.041-.035.085-.055.128s-.042.078-.058.121c-.005.012-.005.025-.01.037a1.844 1.844 0 0 0 -.047.188c-.011.051-.025.1-.032.152s-.007.121-.008.182 0 .107 0 .16a1.641 1.641 0 0 0 .026.171c.009.054.016.108.03.16a1.516 1.516 0 0 0 .058.164c.019.05.035.1.058.149s.059.1.09.153.054.091.086.134.075.086.113.128.076.085.119.123.086.067.13.1.1.074.153.106c.012.007.021.016.033.023s.054.019.081.032a1.859 1.859 0 0 0 .168.081l4.248 1.547a1.746 1.746 0 0 0 1.376-3.2l14.333-5.36a1.746 1.746 0 0 0 3.141 1.514l2.19-3.955a1.75 1.75 0 0 0 .084-.2c.008-.019.022-.034.029-.053s.006-.025.01-.038a1.749 1.749 0 0 0 .046-.183 1.48 1.48 0 0 0 .033-.158 1.632 1.632 0 0 0 .009-.171c0-.057.005-.115 0-.172s-.015-.1-.024-.158a1.63 1.63 0 0 0 -.032-.172c-.014-.054-.036-.1-.055-.156s-.037-.106-.061-.156-.058-.1-.089-.15-.054-.093-.086-.136-.075-.086-.114-.128-.075-.085-.118-.124-.086-.066-.131-.1a1.646 1.646 0 0 0 -.152-.106c-.012-.007-.022-.016-.034-.023-.041-.023-.085-.035-.127-.054s-.078-.043-.122-.059z"/><path d="m37.162 81.764a1.74 1.74 0 0 0 .023.189v.038s.016.03.02.047a1.86 1.86 0 0 0 .06.215l1.663 4.2a1.746 1.746 0 0 0 3.309-1.1l13.522 7.165a1.745 1.745 0 0 0 .567 3.4 1.806 1.806 0 0 0 .384-.042l4.413-.986c.038-.009.071-.025.108-.036s.1-.025.154-.044c.013-.006.023-.014.036-.02a1.565 1.565 0 0 0 .163-.084c.049-.027.1-.051.144-.082s.089-.071.133-.108a1.52 1.52 0 0 0 .128-.111 1.584 1.584 0 0 0 .106-.127 1.671 1.671 0 0 0 .105-.134c.031-.048.056-.1.083-.15s.052-.094.073-.144.037-.112.055-.169.032-.1.043-.152.015-.114.021-.172.013-.112.013-.169a1.453 1.453 0 0 0 -.012-.161 1.737 1.737 0 0 0 -.022-.189c0-.013 0-.025 0-.038-.01-.044-.028-.083-.041-.125s-.021-.092-.039-.137l-1.662-4.2a1.746 1.746 0 0 0 -3.31 1.1l-13.523-7.169a1.745 1.745 0 0 0 -.95-3.354l-4.413.986c-.044.01-.083.029-.125.042s-.092.021-.137.038c-.013.006-.024.014-.037.019a1.681 1.681 0 0 0 -.163.085c-.048.027-.1.051-.143.082s-.09.071-.134.108-.089.071-.128.111-.071.084-.106.127a1.658 1.658 0 0 0 -.1.134 1.682 1.682 0 0 0 -.083.15c-.025.048-.053.094-.073.144a1.666 1.666 0 0 0 -.055.169 1.5 1.5 0 0 0 -.043.153 1.579 1.579 0 0 0 -.021.17 1.623 1.623 0 0 0 -.014.17c-.004.053.003.107.008.161z"/></svg>