<svg viewBox="0 0 24 24" xmlns="http://www.w3.org/2000/svg"><path fill="#dadedf" d="m21.56445 12.02716a1.43555 1.43555 0 1 0 0-2.87109c-.03167 0-.06134.00732-.09247.00934l-.48175-1.90021a1.43033 1.43033 0 1 0 -1.918-2.104l-4.89047-2.27344a1.41527 1.41527 0 0 0 .08014-.45221 1.43555 1.43555 0 1 0 -2.87109 0 1.40425 1.40425 0 0 0 .01489.14691l-3.11395.95422a1.42947 1.42947 0 0 0 -2.43975 1.43256l-2.93061 2.61529a1.41929 1.41929 0 0 0 -.73328-.20837 1.43135 1.43135 0 0 0 -.42975 2.798l-.19452 1.8656a1.43189 1.43189 0 1 0 1.09693 2.53241l.96594.42481c-.00025.01031-.003.0199-.003.03021a1.4337 1.4337 0 0 0 2.84576.25h1.10383a1.4297 1.4297 0 0 0 2.78485-.12775l3.107.10144a1.40262 1.40262 0 0 0 1.66357.12519 11.68938 11.68938 0 0 1 4.29688 4.03863 1.42315 1.42315 0 0 0 -.10657.53705 1.43556 1.43556 0 1 0 2.292-1.14477 6.72255 6.72255 0 0 1 -1.03759-2.422 1.42189 1.42189 0 0 0 .44885-2.472l.541-1.88586zm.56446-1.43555a.56446.56446 0 1 1 -.56446-.56445.56473.56473 0 0 1 .56446.56445zm-1.144-1.31079a1.43383 1.43383 0 0 0 -.84387 1.19068h-1.12133a1.42652 1.42652 0 0 0 -.54071-1.00306l1.40741-1.933a1.257 1.257 0 0 0 .64643-.04053zm-2.27343 5.56757-2.89881-.74231a1.42151 1.42151 0 0 0 -.345-.87836l1.17066-1.57513a1.3757 1.3757 0 0 0 1.36743.30774l1.25244 1.93384a1.42773 1.42773 0 0 0 -.54671.95422zm-10.46142-9.46339 4.082 2.13556a1.28887 1.28887 0 0 0 -.01715.78509l-2.62021 1.34755a1.42686 1.42686 0 0 0 -1.07715-.49713c-.01178 0-.0227.00317-.03442.00348l-.94428-3.37006a1.43091 1.43091 0 0 0 .61121-.40449zm11.14966 1.96882-1.36664 1.87756a1.37347 1.37347 0 0 0 -1.36151.27185l-1.59064-1.2005a1.10212 1.10212 0 0 0 .035-.53051l3.70684-1.0597a1.43985 1.43985 0 0 0 .57695.6413zm-1.80341 3.80225a.56446.56446 0 1 1 .56446-.56446.56473.56473 0 0 1 -.56446.56446zm-3.89886-2.651a.56446.56446 0 1 1 .56445-.56446.56473.56473 0 0 1 -.56445.56446zm-5.0799 1.52209a.56446.56446 0 1 1 -.56445.56445.56473.56473 0 0 1 .56445-.56445zm1.43555.56445a1.42061 1.42061 0 0 0 -.09833-.51068l2.56823-1.31982a1.43356 1.43356 0 0 0 1.1745.61505c.00842 0 .01623-.00238.0246-.0025l-.43444 3.66034-3.90576.49432a1.41769 1.41769 0 0 0 -.239-.05444l-.2984-1.46967a1.435 1.435 0 0 0 1.2086-1.4126zm-1.10419 3.73371a.56445.56445 0 1 1 -.56445.56445.56473.56473 0 0 1 .56445-.56445zm1.07636-.37488 3.05255-.38568a1.40195 1.40195 0 0 0 -.00482 1.1737l-2.71283-.08892a1.42326 1.42326 0 0 0 -.3349-.6991zm4.21295-4.682a1.44128 1.44128 0 0 0 .62878-.50134l1.48566 1.12158a1.38022 1.38022 0 0 0 -.03 1.35071l-1.24255 1.67029a1.39941 1.39941 0 0 0 -1.26514-.07111zm5.89069-3.70844a.56445.56445 0 1 1 -.56446.56445.56473.56473 0 0 1 .56446-.56445zm-1.32849.02575a1.42316 1.42316 0 0 0 -.10706.5387c0 .035.00787.06787.01038.10223l-3.73243 1.06653a1.43261 1.43261 0 0 0 -1.27386-.78814c-.04376 0-.085.00909-.12781.01294l-.52081-2.66944a1.42777 1.42777 0 0 0 .89288-.52093zm-5.97407-3.71466a.56446.56446 0 1 1 -.56445.56446.56473.56473 0 0 1 .56445-.56446zm-1.28454 1.19214a1.43752 1.43752 0 0 0 .9964.77869l.54748 2.80542a1.43911 1.43911 0 0 0 -.52618.42847l-4.04437-2.11646a1.35565 1.35565 0 0 0 .02246-.97565zm-4.35981.80786a.56446.56446 0 1 1 -.56446.56446.56473.56473 0 0 1 .56446-.56446zm-.0407 1.99585.95086 3.392a1.442 1.442 0 0 0 -.67206.54474l-3.79882-.9682.00238-.0238a1.42119 1.42119 0 0 0 -.32318-.89568l2.82352-2.51891a1.42582 1.42582 0 0 0 1.0173.46985zm-4.80506 7.58728a.56445.56445 0 1 1 -.56445-.56445.56473.56473 0 0 1 .56445.56445zm-.27051-1.40472.18915-1.809a1.433 1.433 0 0 0 1.26912-.91378l3.69751.94306a1.3036 1.3036 0 0 0 -.01368.57659l-4.3424 1.6894a1.4312 1.4312 0 0 0 -.7997-.48627zm.12238-3.80225a.56446.56446 0 1 1 -.56445.56446.56473.56473 0 0 1 .56445-.56446zm.81659 5.92975a1.37114 1.37114 0 0 0 .114-1.20239l4.26593-1.66028a1.43433 1.43433 0 0 0 .89161.66724l-1.8648 2.58307a1.4287 1.4287 0 0 0 -2.683-.06879zm2.0545 1.41461a.56445.56445 0 1 1 .56446-.56445.56473.56473 0 0 1 -.56446.56445zm3.40717-3.30561.17863 1.20216a1.43412 1.43412 0 0 0 -1.12024 1.289h-.7zm5.91583 2.43457a.56446.56446 0 1 1 .56446-.56445.56473.56473 0 0 1 -.56446.5644zm6.37238 5.79565a.56445.56445 0 1 1 .56445-.56445.56473.56473 0 0 1 -.56445.5644zm0-2a1.43011 1.43011 0 0 0 -1.02246.43091 12.02542 12.02542 0 0 0 -4.21106-3.92743 1.42464 1.42464 0 0 0 .19995-.35785l3.023.7229a1.43318 1.43318 0 0 0 1.34363 1.07386 5.8321 5.8321 0 0 0 .77508 2.06854c-.0363-.0028-.07109-.01098-.10814-.01098zm-.62567-2.92456a.56445.56445 0 1 1 .56445-.56445.56473.56473 0 0 1 -.56445.5644zm.444-1.92248a1.30321 1.30321 0 0 0 -.869-.00586l-1.24944-1.92832a1.43312 1.43312 0 0 0 .51977-.76349h1.21228a1.43516 1.43516 0 0 0 .88373.96246z"/></svg>