<svg height="64" viewBox="0 0 64 64" width="64" xmlns="http://www.w3.org/2000/svg"><g fill="none" fill-rule="evenodd"><path d="m33 53v-14" stroke="#ffaf40" stroke-linecap="square" stroke-width="2"/><path d="m13 54v-5.0000567c0-2.2091077 1.7964248-3.9999433 4.0000255-3.9999433h31.999949c2.2091531 0 4.0000255 1.7996535 4.0000255 3.9999433v5.0000567" stroke="#ffaf40" stroke-linecap="round" stroke-width="2"/><path d="m8 54h10v9h-10z" fill="#5b68c0"/><path d="m48 54h10v9h-10z" fill="#22ba8e"/><path d="m28 54h10v9h-10z" fill="#ffaf40"/><path d="m16 34.0023695c0-2.2104476 1.787167-4.2081467 3.9642898-4.458824l13.0357102-1.5009519 13.0357102 1.5009519c2.1894168.2520929 3.9642898 2.2482763 3.9642898 4.458824v6.9976305h-34z" fill="#f5413e"/><g fill="#ffdd95"><path d="m27 23.3164468c-3.0102093-2.8459908-5-7.4548925-5-11.3164468 0-6.07513225 4.9248678-11 11-11s11 4.92486775 11 11c0 3.8615543-1.9897907 8.470456-5 11.3164468v6.6835532s-4.0674222 1.4486507-6 1.4486507-6-1.4486507-6-1.4486507z"/><circle cx="24" cy="17" r="3"/><circle cx="42" cy="17" r="3"/></g></g></svg>